<?xml version="1.0"?>
<svg width="300" height="300" xmlns="http://www.w3.org/2000/svg">
	<!-- Golden ratio: 2 / (1 + sqrt(5)) * 300 ~= 185, so we put the main visual crossing at 185,185 -->
	<!-- For simplicity, diagonal lines have coordinates shifted by 1.5 times the thickness rather than sqrt(2), so diagonal lines will be slightly thicker. -->

	<path d="
		M185,0 l-185,185 h95 a40,40,0,0,0,40,-40 v-15 h-35 a20,20,0,0,0,-20,20 v60 h165 l-80,80 v-70 l20,-20 h-95 v-45 a15,15,0,0,1,15,-15 h20 v10 a25,25,0,0,1,-25,25 h-60 l55,-55 h60 l10,-10 h-60 l60,-60 v70 h105 l-65,65 h15 l75,-75 h-110
		M150,185 h35 l10,-10 h-40 v-10 h35 a15,15,0,0,0,15,-15 v-10 a10,10,0,0,0,-10,-10 h-40 a10,10,0,0,0,-10,10 v40
		M155,155 v-10 a5,5,0,0,1,5,-5 h30 a5,5,0,0,1,5,5 a10,10,0,0,1,-10,10
		M205,130 h15 l55,55 h-15" />
</svg>