<?xml version="1.0"?>
<svg width="300" height="300" xmlns="http://www.w3.org/2000/svg">
	<!-- Golden ratio: 2 / (1 + sqrt(5)) * 300 ~= 185, so we put the main visual crossing at 185,185 -->
	<!-- For simplicity, diagonal lines have coordinates shifted by 1.5 times the thickness rather than sqrt(2), so diagonal lines will be slightly thicker. -->

	<path d="
		M185,0 l-185,185 l115,0 l20,-20 l0,-35 l-35,0 l-20,20 l0,60 l165,0 l-80,80 l0,-70 l20,-20 l-95,0 l0,-45 l15,-15 l20,0 l0,20 l-15,15 l-70,0 l125,-125 l0,70 l105,0 l-65,65 l15,0 l75,-75 l-110,0
		M150,185 l35,0 l10,-10 l-40,0 l0,-10 l35,0 l15,-15 l0,-10 l-10,-10 l-40,0 l-10,10 l0,40
		M155,155 l0,-10 l5,-5 l30,0 l5,5 l-10,10
		M205,130 l15,0 l55,55 l-15,0" />
</svg>