<?xml version="1.0"?>
<svg width="300" height="300" xmlns="http://www.w3.org/2000/svg">
	<!-- Golden ratio: 2 / (1 + sqrt(5)) * 300 ~= 185 -->
	<!-- For simplicity, diagonal lines have coordinates shifted by 1.5 times the thickness rather than sqrt(2), so diagonal lines will be slightly thicker. -->

	<path d="
		M185,0 l-185,185 l80,0 l0,35 l165,0 l-80,80 l0,-70 l20,-20 l-95,0 l0,-25 l25,0 l30,-30 l0,-35 l-35,0 l-30,30 l0,15 l-30,0 l115,-115 l0,60 l110,0 l-75,75 l15,0 l85,-85 l-115,0
		M90,165 l0,-10 l25,-25 l20,0 l0,20 l-15,15
		M150,185 l40,0 l10,-10 l-35,0 l0,-10 l25,0 l15,-15 l0,-20 l-10,-10 l-30,0 l-10,10 l0,50
		M165,155 l0,-20 l5,-5 l20,0 l5,5 l0,10 l-10,10
		M205,120 l15,0 l65,65 l-15,0" />
</svg>